<svg width="760" height="513" viewBox="0 0 760 513" fill="none" xmlns="http://www.w3.org/2000/svg">
<path d="M154.098 3.35461L155.246 34.6052H149.861C148.683 27.9549 146.947 22.9524 144.652 19.5978C142.357 16.1844 138.885 13.8597 134.235 12.6238C129.586 11.3879 123.142 10.5934 114.902 10.2403L109.429 10.0638V112.996C109.429 115.88 109.782 118.117 110.488 119.706C111.195 121.236 112.695 122.383 114.991 123.148C117.286 123.914 120.788 124.531 125.496 125.002V130.829H74.6473V125.002C79.3555 124.531 82.8572 123.914 85.1524 123.148C87.4477 122.383 88.919 121.236 89.5664 119.706C90.2726 118.117 90.6257 115.88 90.6257 112.996V10.0638L85.1524 10.2403C76.9131 10.5934 70.4688 11.3879 65.8195 12.6238C61.1701 13.8597 57.6978 16.1844 55.4026 19.5978C53.1662 22.9524 51.4301 27.9549 50.1942 34.6052H44.8975L46.0451 3.35461H154.098Z" fill="#FFC300"/>
<path d="M259.855 3.35461L261.003 34.6052H255.706C254.235 28.308 252.322 23.4821 249.968 20.1275C247.614 16.7729 244.289 14.4483 239.993 13.1535C235.755 11.8588 230.106 11.0937 223.043 10.8583L199.208 10.0638V62.1481L225.339 61.9715C227.752 61.9715 229.664 61.5301 231.077 60.6473C232.489 59.7645 233.666 58.0578 234.608 55.5272C235.549 52.9965 236.521 49.23 237.521 44.2275H242.553V86.866H237.521C236.697 81.9224 235.814 78.1853 234.873 75.6547C233.931 73.124 232.725 71.3879 231.253 70.4462C229.841 69.5046 227.869 69.0338 225.339 69.0338L199.208 68.8572V124.12L223.661 123.325C230.135 123.031 235.461 122.56 239.64 121.913C243.877 121.206 247.291 119.941 249.88 118.117C252.47 116.292 254.529 113.614 256.06 110.083C257.649 106.493 258.973 101.697 260.032 95.6939H265.417L264.005 130.829H165.662V125.002C170.017 124.59 173.254 124.031 175.373 123.325C177.492 122.619 178.845 121.589 179.434 120.235C180.081 118.823 180.405 116.792 180.405 114.144V20.0392C180.405 17.3909 180.081 15.3899 179.434 14.0363C178.845 12.6238 177.492 11.5645 175.373 10.8583C173.254 10.1521 170.017 9.59295 165.662 9.18099V3.35461H259.855Z" fill="#FFC300"/>
<path d="M378.06 107.876C379.708 112.349 381.238 115.762 382.651 118.117C384.122 120.412 385.888 122.03 387.948 122.972C390.007 123.914 392.803 124.59 396.334 125.002V130.829H347.163V125.002C351.694 124.473 354.99 123.678 357.05 122.619C359.11 121.559 360.169 119.882 360.228 117.587C360.346 115.292 359.64 112.055 358.109 107.876L326.329 17.8323H328.978L298.08 106.905C296.55 111.437 295.785 114.909 295.785 117.322C295.785 119.676 296.815 121.412 298.875 122.531C300.934 123.59 304.289 124.414 308.938 125.002V130.829H269.39V125.002C273.156 124.59 276.069 123.884 278.129 122.884C280.248 121.883 282.013 120.147 283.426 117.675C284.897 115.145 286.545 111.407 288.369 106.464L326.417 3.35461H339.659L378.06 107.876ZM301.435 86.3363L304.083 79.0092H356.079L358.816 86.3363H301.435Z" fill="#FFC300"/>
<path d="M397.482 66.7385C397.482 56.3805 399.129 47.1407 402.425 39.0191C405.78 30.8386 410.429 23.9235 416.373 18.2737C422.376 12.6238 429.321 8.32763 437.207 5.38501C445.152 2.38355 453.715 0.882812 462.896 0.882812C472.901 0.882812 481.493 1.85388 488.673 3.796C495.853 5.73813 501.297 8.06279 505.005 10.77L506.064 38.1363H500.767C499.531 33.0162 497.854 28.6317 495.736 24.9828C493.617 21.2751 491.057 18.2737 488.055 15.9784C485.054 13.6832 481.582 12.0059 477.638 10.9466C473.754 9.82836 469.399 9.26927 464.573 9.26927C454.863 9.26927 446.564 11.5939 439.679 16.2433C432.793 20.8337 427.555 27.3075 423.965 35.6645C420.375 43.9627 418.58 53.6145 418.58 64.6199C418.58 73.33 419.669 81.3633 421.846 88.7199C424.083 96.0764 427.231 102.462 431.292 107.876C435.353 113.291 440.208 117.499 445.858 120.5C451.567 123.443 457.864 124.914 464.75 124.914C469.458 124.914 473.754 124.414 477.638 123.413C481.582 122.413 485.083 120.765 488.144 118.47C491.263 116.174 493.911 113.085 496.089 109.2C498.325 105.316 500.091 100.549 501.385 94.8994H506.77L505.623 122.354C503.151 124.178 499.708 125.944 495.294 127.651C490.939 129.299 485.966 130.652 480.375 131.711C474.843 132.771 469.075 133.3 463.072 133.3C454.245 133.3 445.858 131.8 437.913 128.798C430.027 125.738 423.053 121.324 416.991 115.557C410.929 109.789 406.162 102.815 402.69 94.6345C399.218 86.3952 397.482 77.0965 397.482 66.7385Z" fill="#FFC300"/>
<path d="M554.441 114.585C554.441 117.116 554.764 119.058 555.412 120.412C556.059 121.765 557.383 122.766 559.384 123.413C561.385 124.061 564.446 124.59 568.565 125.002V130.829H520.895V125.002C525.25 124.59 528.487 124.031 530.606 123.325C532.724 122.619 534.078 121.589 534.666 120.235C535.314 118.823 535.637 116.792 535.637 114.144V20.0392C535.637 17.3909 535.314 15.3899 534.666 14.0363C534.078 12.6238 532.724 11.5645 530.606 10.8583C528.487 10.1521 525.25 9.59295 520.895 9.18099V3.35461H568.565V9.26927C564.446 9.68123 561.385 10.2109 559.384 10.8583C557.383 11.5057 556.059 12.5061 555.412 13.8597C554.764 15.2133 554.441 17.1555 554.441 19.6861V114.585ZM638.658 114.144C638.658 116.792 638.982 118.823 639.629 120.235C640.277 121.589 641.66 122.619 643.779 123.325C645.897 124.031 649.075 124.59 653.313 125.002V130.829H605.73V125.002C609.968 124.59 613.058 124.061 615 123.413C617.001 122.766 618.295 121.765 618.884 120.412C619.472 119.058 619.767 117.116 619.767 114.585V19.5978C619.767 17.0672 619.472 15.1251 618.884 13.7715C618.295 12.4179 617.001 11.4174 615 10.77C613.058 10.1226 609.968 9.59295 605.73 9.18099V3.35461H653.313V9.18099C649.075 9.59295 645.897 10.1521 643.779 10.8583C641.66 11.5645 640.277 12.6238 639.629 14.0363C638.982 15.3899 638.658 17.3909 638.658 20.0392V114.144ZM545.083 69.2103V61.9715H629.213V69.2103H545.083Z" fill="#FFC300"/>
<path d="M217.598 238.829H152.408V234.466C155.607 234.134 157.954 233.739 159.45 233.282C160.987 232.783 161.964 232.056 162.379 231.101C162.836 230.103 163.065 228.67 163.065 226.8V160.862C163.065 158.993 162.836 157.58 162.379 156.624C161.964 155.627 160.987 154.9 159.45 154.443C157.954 153.944 155.607 153.529 152.408 153.197V148.834H188.056V153.197C184.608 153.57 182.053 154.028 180.391 154.568C178.77 155.066 177.711 155.856 177.212 156.936C176.714 158.016 176.464 159.554 176.464 161.548V233.718L190.736 233.22C194.351 233.095 197.446 232.783 200.022 232.285C202.599 231.745 204.78 230.768 206.566 229.356C208.353 227.943 209.87 225.845 211.116 223.061C212.404 220.277 213.547 216.6 214.544 212.03H218.595L217.598 238.829Z" fill="#FFC300"/>
<path d="M250.38 226.8C250.38 228.67 250.587 230.103 251.003 231.101C251.46 232.056 252.436 232.783 253.932 233.282C255.469 233.739 257.838 234.134 261.037 234.466V238.829H226.385V234.466C229.543 234.134 231.87 233.739 233.365 233.282C234.903 232.783 235.879 232.056 236.295 231.101C236.752 230.103 236.98 228.67 236.98 226.8V160.862C236.98 158.993 236.752 157.58 236.295 156.624C235.879 155.627 234.903 154.9 233.365 154.443C231.87 153.944 229.543 153.529 226.385 153.197V148.834H261.037V153.197C257.838 153.529 255.469 153.944 253.932 154.443C252.436 154.9 251.46 155.627 251.003 156.624C250.587 157.58 250.38 158.993 250.38 160.862V226.8Z" fill="#FFC300"/>
<path d="M293.757 227.05C293.757 228.836 293.985 230.207 294.442 231.163C294.899 232.119 295.834 232.825 297.247 233.282C298.701 233.739 300.924 234.134 303.915 234.466V238.829H269.7V234.466C272.899 234.134 275.247 233.739 276.742 233.282C278.28 232.783 279.256 232.056 279.672 231.101C280.129 230.103 280.357 228.67 280.357 226.8V160.862C280.357 158.993 280.129 157.58 279.672 156.624C279.256 155.627 278.28 154.9 276.742 154.443C275.247 153.944 272.899 153.529 269.7 153.197V148.834H303.915V153.259C300.924 153.591 298.701 153.986 297.247 154.443C295.834 154.9 294.899 155.606 294.442 156.562C293.985 157.518 293.757 158.889 293.757 160.675V227.05ZM333.332 238.829L302.918 191.712L324.918 164.913C327.203 162.088 328.595 159.886 329.094 158.307C329.634 156.687 329.198 155.503 327.785 154.755C326.414 154.007 324.004 153.487 320.556 153.197V148.834H350.969V153.197C348.684 153.612 346.586 154.318 344.675 155.316C342.764 156.271 340.686 157.767 338.442 159.803C336.199 161.839 333.436 164.622 330.153 168.154C326.746 171.935 323.402 175.716 320.119 179.497C316.837 183.278 313.721 186.934 310.771 190.466L312.952 183.361L334.952 217.327C337.736 221.565 340.063 224.889 341.933 227.299C343.802 229.667 345.485 231.391 346.981 232.472C348.477 233.552 350.076 234.321 351.78 234.778V238.829H333.332ZM308.527 194.704L287.711 194.641V189.531H308.527V194.704Z" fill="#FFC300"/>
<path d="M422.579 148.834L423.327 171.083H419.276C418.279 166.638 416.949 163.251 415.287 160.925C413.667 158.598 411.381 156.998 408.431 156.126C405.523 155.212 401.638 154.672 396.777 154.505L379.513 153.944V190.154L398.023 190.092C399.602 190.092 400.849 189.801 401.763 189.219C402.719 188.596 403.529 187.391 404.193 185.605C404.858 183.776 405.544 181.076 406.25 177.503H410.114V207.979H406.25C405.668 204.405 405.045 201.726 404.38 199.939C403.716 198.152 402.885 196.947 401.888 196.324C400.932 195.659 399.644 195.327 398.023 195.327L379.513 195.265V233.718L396.902 233.157C401.43 232.991 405.17 232.679 408.12 232.222C411.07 231.765 413.438 230.914 415.225 229.667C417.053 228.379 418.507 226.489 419.587 223.996C420.668 221.461 421.582 218.075 422.33 213.837H426.381L425.446 238.829H355.457V234.466C358.656 234.134 361.003 233.739 362.499 233.282C364.037 232.783 365.013 232.056 365.428 231.101C365.885 230.103 366.114 228.67 366.114 226.8V160.862C366.114 158.993 365.885 157.58 365.428 156.624C365.013 155.627 364.037 154.9 362.499 154.443C361.003 153.944 358.656 153.529 355.457 153.197V148.834H422.579Z" fill="#FFC300"/>
<path d="M538.749 222.438C539.913 225.595 540.993 227.984 541.99 229.605C543.029 231.225 544.275 232.368 545.73 233.033C547.225 233.656 549.24 234.134 551.775 234.466V238.829H516.687V234.466C519.928 234.051 522.296 233.49 523.792 232.783C525.288 232.035 526.056 230.872 526.098 229.293C526.181 227.673 525.682 225.367 524.602 222.375L502.103 158.681H504.098L482.098 222.001C481.017 225.159 480.477 227.548 480.477 229.169C480.519 230.789 481.287 231.973 482.783 232.721C484.279 233.469 486.689 234.051 490.013 234.466V238.829H461.469V234.466C464.169 234.134 466.247 233.635 467.701 232.97C469.197 232.264 470.443 231.059 471.44 229.356C472.437 227.652 473.58 225.097 474.868 221.69L501.729 148.834H511.639L538.749 222.438ZM484.341 207.542L486.336 202.058H523.106L525.163 207.542H484.341Z" fill="#FFC300"/>
<mask id="path-2-outside-1_164_33" maskUnits="userSpaceOnUse" x="5" y="247.141" width="752" height="270" fill="black">
<rect fill="white" x="5" y="247.141" width="752" height="270"/>
<path d="M48.8698 480.521C46.3636 494.723 26.7322 494.305 24.226 480.104C16.7076 432.487 14.2015 384.035 14.6192 336.001C14.6192 325.976 15.0369 315.951 15.8722 305.927C16.2899 299.244 15.0369 291.725 19.2138 286.713C20.4668 285.042 21.7199 282.954 23.3907 281.701C25.0614 280.03 27.9852 279.195 30.4914 278.777C39.2629 277.106 79.3612 280.03 88.5503 281.283C92.7272 281.701 109.017 283.372 112.776 285.042C122.801 290.89 120.295 306.345 108.599 308.433C104.005 309.268 81.8673 305.509 77.2727 305.092C65.1597 303.838 53.0467 303.421 40.9336 303.421C39.6806 328.9 39.6806 354.797 40.516 380.276C45.5282 380.276 76.855 379.858 82.285 379.44C99.4103 379.023 99.4103 404.084 82.285 404.502C77.2727 404.92 46.3636 405.337 41.3513 405.337C42.6044 423.716 44.6929 442.094 46.7813 460.472C47.199 463.396 49.7051 477.598 48.8698 480.521ZM169.55 499.318C164.537 512.684 144.906 508.924 145.324 494.723C145.324 490.964 144.906 487.205 144.488 483.445C141.982 452.536 138.641 422.045 136.97 391.136C135.717 372.757 135.299 353.961 139.894 336.418C142.817 322.635 149.918 309.268 159.943 300.079C166.626 293.396 175.815 289.219 185.422 287.549C195.864 285.46 208.395 287.549 217.584 293.814C222.596 297.155 226.355 303.003 229.279 308.433C238.886 329.735 228.444 362.315 209.648 376.099C201.712 381.947 192.105 386.123 182.498 388.212C193.776 399.072 204.218 409.932 213.407 422.463C224.685 437.499 234.709 453.372 244.316 469.662C253.088 484.698 231.368 497.229 222.596 482.61C212.989 465.902 202.547 449.195 190.852 434.158C182.08 423.298 172.473 413.273 162.449 403.666C164.12 427.475 166.626 450.865 169.132 474.256C169.55 478.851 170.803 495.141 169.55 499.318ZM169.967 326.811C163.284 338.924 161.614 353.126 161.196 366.91C171.638 365.657 182.498 363.15 191.687 358.138C200.459 353.126 206.306 342.266 207.559 332.241C207.977 327.229 207.977 322.217 205.889 318.04C202.129 309.268 190.852 310.522 182.498 314.698C177.068 317.205 172.891 321.799 169.967 326.811ZM304.265 313.445C299.67 325.558 282.127 323.888 280.038 311.357C279.621 308.851 280.456 297.155 280.874 294.649C281.709 279.195 303.011 276.689 305.518 292.143C306.353 295.902 305.518 309.686 304.265 313.445ZM289.645 490.546C287.557 500.988 274.609 504.748 267.508 496.394C266.255 494.723 265.419 492.634 265.002 490.546C263.749 486.369 265.419 465.067 265.837 460.472C267.508 431.652 269.596 402.413 272.102 373.593C272.52 370.251 273.355 354.379 274.609 351.037C279.621 337.671 300.088 341.848 298.835 356.05C295.075 398.654 291.316 441.259 289.645 483.863C289.645 486.369 290.063 488.458 289.645 490.546ZM408.025 479.686C393.823 487.205 374.192 486.787 359.99 479.686C351.219 475.509 344.118 467.991 339.106 460.055C331.587 448.359 327.41 433.74 326.157 419.539C323.234 393.642 328.664 366.492 339.941 343.101C346.624 330.153 356.231 318.458 367.091 308.433C380.457 295.902 399.253 287.549 417.632 287.131C424.732 287.131 432.668 288.384 438.934 291.725C449.794 297.573 456.894 310.522 456.059 323.052C455.224 334.33 449.794 345.19 443.946 354.379C434.757 368.163 423.062 380.276 409.695 390.3C392.152 402.831 372.103 413.273 350.801 415.779C352.472 427.892 354.978 440.423 362.496 450.03C371.268 460.89 387.976 464.649 399.253 455.878C406.354 450.448 410.113 440.423 410.531 431.234C410.531 428.31 410.113 425.386 411.366 422.88C415.961 409.514 435.592 413.273 435.592 427.475C435.592 431.652 435.175 435.411 434.757 439.17C433.504 455.46 422.644 472.585 408.025 479.686ZM383.381 327.647C365.838 343.101 354.56 366.91 351.636 390.3C381.292 383.617 410.113 362.733 425.568 336.418C428.074 331.824 430.58 327.229 430.998 322.635C431.415 316.787 426.821 312.192 420.973 312.192C407.607 312.192 393.406 318.458 383.381 327.647ZM496.373 492.217C491.778 505.583 472.564 502.241 472.147 488.04C472.147 476.762 480.083 419.956 481.753 409.096C484.677 390.3 488.019 371.504 493.867 353.544C498.043 341.848 503.056 329.318 512.245 320.128C518.928 313.445 529.788 312.61 536.471 318.875C541.066 322.635 543.572 328.482 545.242 333.912C551.508 353.544 554.849 374.01 559.444 393.642C563.203 409.096 566.545 424.551 573.645 438.335C576.152 424.551 576.987 410.349 577.822 396.148C579.493 360.227 580.746 324.305 580.746 288.384C580.746 283.372 581.581 266.664 584.088 262.487C590.353 251.209 607.478 255.804 607.478 268.752C607.478 270.006 607.061 271.676 606.643 272.929C605.39 279.612 605.808 313.445 605.39 319.711C604.972 348.531 604.137 376.934 602.048 405.755C601.213 419.121 600.378 432.487 597.454 445.853C596.201 452.119 594.53 458.802 590.353 464.232C584.505 471.75 574.063 473.838 565.709 468.408C559.026 463.814 554.432 456.713 551.09 449.612C536.053 417.868 532.712 381.947 523.523 347.696C514.751 366.074 510.574 386.541 507.65 406.59C503.891 428.728 500.967 451.283 498.461 473.421C498.043 476.345 497.626 489.711 496.373 492.217ZM680.535 484.698C673.017 486.787 664.663 487.622 657.144 485.116C650.044 483.028 644.614 476.345 641.69 469.662C638.766 461.308 638.348 451.701 638.348 442.929C637.513 424.551 635.424 320.128 635.842 301.75C636.26 298.408 636.677 295.067 637.931 292.561C640.854 286.713 648.373 282.119 654.638 282.954C655.474 283.372 661.321 285.042 662.157 285.46C688.053 294.232 713.115 310.522 729.405 332.659C736.088 341.848 741.1 351.873 744.442 362.733C748.618 375.681 749.036 389.465 747.365 402.413C744.024 426.639 732.329 449.195 714.368 465.485C704.761 474.256 693.066 480.939 680.535 484.698ZM665.08 459.637C665.08 460.472 665.498 461.725 666.333 461.725C669.675 461.725 673.434 460.89 676.776 459.637C685.965 455.878 695.154 450.03 702.255 442.512C716.039 427.057 724.81 403.666 722.722 382.782C721.886 370.669 717.292 358.556 710.191 348.531C698.078 332.241 679.7 319.711 660.904 311.775C660.904 338.924 661.739 366.074 662.157 393.224C662.574 402.831 662.992 450.03 665.08 459.637Z"/>
</mask>
<path d="M48.8698 480.521C46.3636 494.723 26.7322 494.305 24.226 480.104C16.7076 432.487 14.2015 384.035 14.6192 336.001C14.6192 325.976 15.0369 315.951 15.8722 305.927C16.2899 299.244 15.0369 291.725 19.2138 286.713C20.4668 285.042 21.7199 282.954 23.3907 281.701C25.0614 280.03 27.9852 279.195 30.4914 278.777C39.2629 277.106 79.3612 280.03 88.5503 281.283C92.7272 281.701 109.017 283.372 112.776 285.042C122.801 290.89 120.295 306.345 108.599 308.433C104.005 309.268 81.8673 305.509 77.2727 305.092C65.1597 303.838 53.0467 303.421 40.9336 303.421C39.6806 328.9 39.6806 354.797 40.516 380.276C45.5282 380.276 76.855 379.858 82.285 379.44C99.4103 379.023 99.4103 404.084 82.285 404.502C77.2727 404.92 46.3636 405.337 41.3513 405.337C42.6044 423.716 44.6929 442.094 46.7813 460.472C47.199 463.396 49.7051 477.598 48.8698 480.521ZM169.55 499.318C164.537 512.684 144.906 508.924 145.324 494.723C145.324 490.964 144.906 487.205 144.488 483.445C141.982 452.536 138.641 422.045 136.97 391.136C135.717 372.757 135.299 353.961 139.894 336.418C142.817 322.635 149.918 309.268 159.943 300.079C166.626 293.396 175.815 289.219 185.422 287.549C195.864 285.46 208.395 287.549 217.584 293.814C222.596 297.155 226.355 303.003 229.279 308.433C238.886 329.735 228.444 362.315 209.648 376.099C201.712 381.947 192.105 386.123 182.498 388.212C193.776 399.072 204.218 409.932 213.407 422.463C224.685 437.499 234.709 453.372 244.316 469.662C253.088 484.698 231.368 497.229 222.596 482.61C212.989 465.902 202.547 449.195 190.852 434.158C182.08 423.298 172.473 413.273 162.449 403.666C164.12 427.475 166.626 450.865 169.132 474.256C169.55 478.851 170.803 495.141 169.55 499.318ZM169.967 326.811C163.284 338.924 161.614 353.126 161.196 366.91C171.638 365.657 182.498 363.15 191.687 358.138C200.459 353.126 206.306 342.266 207.559 332.241C207.977 327.229 207.977 322.217 205.889 318.04C202.129 309.268 190.852 310.522 182.498 314.698C177.068 317.205 172.891 321.799 169.967 326.811ZM304.265 313.445C299.67 325.558 282.127 323.888 280.038 311.357C279.621 308.851 280.456 297.155 280.874 294.649C281.709 279.195 303.011 276.689 305.518 292.143C306.353 295.902 305.518 309.686 304.265 313.445ZM289.645 490.546C287.557 500.988 274.609 504.748 267.508 496.394C266.255 494.723 265.419 492.634 265.002 490.546C263.749 486.369 265.419 465.067 265.837 460.472C267.508 431.652 269.596 402.413 272.102 373.593C272.52 370.251 273.355 354.379 274.609 351.037C279.621 337.671 300.088 341.848 298.835 356.05C295.075 398.654 291.316 441.259 289.645 483.863C289.645 486.369 290.063 488.458 289.645 490.546ZM408.025 479.686C393.823 487.205 374.192 486.787 359.99 479.686C351.219 475.509 344.118 467.991 339.106 460.055C331.587 448.359 327.41 433.74 326.157 419.539C323.234 393.642 328.664 366.492 339.941 343.101C346.624 330.153 356.231 318.458 367.091 308.433C380.457 295.902 399.253 287.549 417.632 287.131C424.732 287.131 432.668 288.384 438.934 291.725C449.794 297.573 456.894 310.522 456.059 323.052C455.224 334.33 449.794 345.19 443.946 354.379C434.757 368.163 423.062 380.276 409.695 390.3C392.152 402.831 372.103 413.273 350.801 415.779C352.472 427.892 354.978 440.423 362.496 450.03C371.268 460.89 387.976 464.649 399.253 455.878C406.354 450.448 410.113 440.423 410.531 431.234C410.531 428.31 410.113 425.386 411.366 422.88C415.961 409.514 435.592 413.273 435.592 427.475C435.592 431.652 435.175 435.411 434.757 439.17C433.504 455.46 422.644 472.585 408.025 479.686ZM383.381 327.647C365.838 343.101 354.56 366.91 351.636 390.3C381.292 383.617 410.113 362.733 425.568 336.418C428.074 331.824 430.58 327.229 430.998 322.635C431.415 316.787 426.821 312.192 420.973 312.192C407.607 312.192 393.406 318.458 383.381 327.647ZM496.373 492.217C491.778 505.583 472.564 502.241 472.147 488.04C472.147 476.762 480.083 419.956 481.753 409.096C484.677 390.3 488.019 371.504 493.867 353.544C498.043 341.848 503.056 329.318 512.245 320.128C518.928 313.445 529.788 312.61 536.471 318.875C541.066 322.635 543.572 328.482 545.242 333.912C551.508 353.544 554.849 374.01 559.444 393.642C563.203 409.096 566.545 424.551 573.645 438.335C576.152 424.551 576.987 410.349 577.822 396.148C579.493 360.227 580.746 324.305 580.746 288.384C580.746 283.372 581.581 266.664 584.088 262.487C590.353 251.209 607.478 255.804 607.478 268.752C607.478 270.006 607.061 271.676 606.643 272.929C605.39 279.612 605.808 313.445 605.39 319.711C604.972 348.531 604.137 376.934 602.048 405.755C601.213 419.121 600.378 432.487 597.454 445.853C596.201 452.119 594.53 458.802 590.353 464.232C584.505 471.75 574.063 473.838 565.709 468.408C559.026 463.814 554.432 456.713 551.09 449.612C536.053 417.868 532.712 381.947 523.523 347.696C514.751 366.074 510.574 386.541 507.65 406.59C503.891 428.728 500.967 451.283 498.461 473.421C498.043 476.345 497.626 489.711 496.373 492.217ZM680.535 484.698C673.017 486.787 664.663 487.622 657.144 485.116C650.044 483.028 644.614 476.345 641.69 469.662C638.766 461.308 638.348 451.701 638.348 442.929C637.513 424.551 635.424 320.128 635.842 301.75C636.26 298.408 636.677 295.067 637.931 292.561C640.854 286.713 648.373 282.119 654.638 282.954C655.474 283.372 661.321 285.042 662.157 285.46C688.053 294.232 713.115 310.522 729.405 332.659C736.088 341.848 741.1 351.873 744.442 362.733C748.618 375.681 749.036 389.465 747.365 402.413C744.024 426.639 732.329 449.195 714.368 465.485C704.761 474.256 693.066 480.939 680.535 484.698ZM665.08 459.637C665.08 460.472 665.498 461.725 666.333 461.725C669.675 461.725 673.434 460.89 676.776 459.637C685.965 455.878 695.154 450.03 702.255 442.512C716.039 427.057 724.81 403.666 722.722 382.782C721.886 370.669 717.292 358.556 710.191 348.531C698.078 332.241 679.7 319.711 660.904 311.775C660.904 338.924 661.739 366.074 662.157 393.224C662.574 402.831 662.992 450.03 665.08 459.637Z" fill="#FFC300"/>
<path d="M48.8698 480.521L40.5175 478.135L40.3938 478.568L40.3155 479.012L48.8698 480.521ZM24.226 480.104L15.6459 481.459L15.6581 481.536L15.6717 481.613L24.226 480.104ZM14.6192 336.001L23.3053 336.076L23.3056 336.038V336.001H14.6192ZM15.8722 305.927L24.5287 306.648L24.5362 306.559L24.5418 306.469L15.8722 305.927ZM19.2138 286.713L25.8869 292.274L26.0294 292.103L26.1629 291.925L19.2138 286.713ZM23.3907 281.701L28.6026 288.65L29.0964 288.28L29.5329 287.843L23.3907 281.701ZM30.4914 278.777L31.9194 287.345L32.0183 287.329L32.1167 287.31L30.4914 278.777ZM88.5503 281.283L87.3767 289.89L87.531 289.911L87.686 289.927L88.5503 281.283ZM112.776 285.042L117.153 277.539L116.741 277.299L116.304 277.105L112.776 285.042ZM108.599 308.433L107.072 299.882L107.059 299.884L107.046 299.887L108.599 308.433ZM77.2727 305.092L76.3789 313.732L76.4325 313.737L76.4863 313.742L77.2727 305.092ZM40.9337 303.421V294.734H32.6639L32.2577 302.994L40.9337 303.421ZM40.516 380.276L31.8341 380.56L32.1096 388.962H40.516V380.276ZM82.285 379.44L82.0732 370.757L81.8457 370.762L81.6188 370.78L82.285 379.44ZM82.285 404.502L82.0732 395.818L81.818 395.824L81.5636 395.845L82.285 404.502ZM41.3513 405.337V396.651H32.0524L32.685 405.928L41.3513 405.337ZM46.7813 460.472L38.1504 461.453L38.1645 461.577L38.1821 461.701L46.7813 460.472ZM40.3155 479.012C40.0464 480.536 39.4401 481.231 38.9813 481.588C38.4401 482.009 37.6513 482.297 36.7118 482.279C35.7719 482.261 34.9031 481.939 34.2606 481.417C33.6908 480.954 33.0534 480.142 32.7803 478.594L15.6717 481.613C17.7107 493.167 27.077 499.473 36.384 499.649C45.7676 499.826 55.3558 493.751 57.4241 482.031L40.3155 479.012ZM32.8062 478.749C25.3813 431.725 22.8906 383.77 23.3053 336.076L5.93301 335.925C5.51236 384.3 8.03393 433.25 15.6459 481.459L32.8062 478.749ZM23.3056 336.001C23.3056 326.218 23.7132 316.434 24.5287 306.648L7.21576 305.206C6.36045 315.469 5.93268 325.734 5.93268 336.001H23.3056ZM24.5418 306.469C24.6655 304.49 24.6634 302.484 24.6696 300.843C24.6762 299.092 24.6914 297.675 24.7934 296.37C25.0012 293.71 25.5033 292.734 25.8869 292.274L12.5406 281.152C8.74729 285.704 7.78752 290.994 7.4732 295.017C7.3141 297.053 7.30319 299.082 7.29676 300.777C7.28993 302.582 7.28781 304.023 7.20267 305.385L24.5418 306.469ZM26.1629 291.925C26.5603 291.395 26.9508 290.842 27.2424 290.431C27.5635 289.979 27.8099 289.635 28.0457 289.327C28.553 288.664 28.7141 288.566 28.6026 288.65L18.1787 274.752C16.3964 276.088 15.0956 277.662 14.2454 278.774C13.8025 279.353 13.3963 279.923 13.0778 280.372C12.7298 280.862 12.4938 281.196 12.2646 281.501L26.1629 291.925ZM29.5329 287.843C29.3193 288.057 29.1854 288.127 29.2294 288.101C29.2706 288.077 29.4103 288.003 29.6778 287.902C30.2367 287.693 31.0078 287.497 31.9194 287.345L29.0634 270.209C26.4197 270.649 21.0171 271.79 17.2484 275.559L29.5329 287.843ZM32.1167 287.31C33.3197 287.081 36.6091 286.913 41.872 286.973C46.8332 287.03 52.8167 287.271 58.8844 287.607C71.1094 288.283 83.1438 289.313 87.3767 289.89L89.724 272.676C84.7677 272.001 72.1584 270.942 59.844 270.26C53.6421 269.917 47.3821 269.662 42.0707 269.602C37.061 269.544 32.0489 269.638 28.866 270.244L32.1167 287.31ZM87.686 289.927C89.756 290.134 94.753 290.644 99.6661 291.302C102.13 291.633 104.482 291.988 106.39 292.346C108.599 292.761 109.364 293.031 109.248 292.98L116.304 277.105C114.31 276.218 111.628 275.653 109.595 275.272C107.261 274.833 104.574 274.432 101.974 274.083C96.758 273.384 91.5216 272.851 89.4147 272.64L87.686 289.927ZM108.4 292.546C111.598 294.411 110.637 299.245 107.072 299.882L110.126 316.984C129.952 313.444 134.004 287.369 117.153 277.539L108.4 292.546ZM107.046 299.887C107.246 299.85 106.199 299.931 103.161 299.668C100.567 299.444 97.3815 299.06 94.0797 298.621C87.8783 297.798 80.5698 296.669 78.0591 296.441L76.4863 313.742C78.5702 313.932 84.6278 314.892 91.7925 315.843C95.1737 316.292 98.6709 316.718 101.664 316.976C104.212 317.197 107.656 317.434 110.153 316.979L107.046 299.887ZM78.1665 296.451C65.6669 295.158 53.239 294.734 40.9337 294.734V312.107C52.8543 312.107 64.6524 312.519 76.3789 313.732L78.1665 296.451ZM32.2577 302.994C30.9907 328.755 30.9926 354.894 31.8341 380.56L49.1978 379.991C48.3685 354.699 48.3704 329.044 49.6096 303.847L32.2577 302.994ZM40.516 388.962C45.4362 388.962 77.122 388.55 82.9512 388.101L81.6188 370.78C76.5881 371.166 45.6202 371.589 40.516 371.589V388.962ZM82.4968 388.124C84.4956 388.076 85.2478 388.705 85.5629 389.043C86.0183 389.532 86.4425 390.432 86.4425 391.658C86.4425 392.879 86.016 393.918 85.4334 394.571C84.9727 395.088 84.076 395.769 82.0732 395.818L82.4968 413.186C89.0566 413.026 94.582 410.417 98.4025 406.131C102.101 401.981 103.815 396.702 103.815 391.658C103.815 386.618 102.099 381.305 98.2731 377.2C94.3068 372.943 88.637 370.596 82.0732 370.757L82.4968 388.124ZM81.5636 395.845C76.9891 396.227 46.4837 396.651 41.3513 396.651V414.024C46.2436 414.024 77.5563 413.612 83.0064 413.158L81.5636 395.845ZM32.685 405.928C33.9536 424.535 36.0657 443.108 38.1504 461.453L55.4122 459.492C53.32 441.08 51.2552 422.897 50.0177 404.746L32.685 405.928ZM38.1821 461.701C38.4794 463.782 39.0842 467.165 39.6861 471.652C39.9639 473.723 40.1838 475.652 40.2889 477.167C40.3418 477.93 40.3569 478.468 40.3516 478.804C40.3435 479.316 40.2951 478.913 40.5175 478.135L57.222 482.908C57.6533 481.399 57.7093 479.913 57.7224 479.077C57.7383 478.065 57.6914 476.991 57.6203 475.966C57.4774 473.905 57.2013 471.552 56.9048 469.342C56.358 465.266 55.5009 460.087 55.3805 459.244L38.1821 461.701ZM169.55 499.318L177.683 502.368L177.786 502.094L177.87 501.814L169.55 499.318ZM145.324 494.723L154.006 494.978L154.01 494.851V494.723H145.324ZM144.488 483.445L135.83 484.147L135.841 484.276L135.855 484.405L144.488 483.445ZM136.97 391.136L145.644 390.667L145.64 390.606L145.636 390.545L136.97 391.136ZM139.894 336.418L148.297 338.619L148.349 338.421L148.391 338.221L139.894 336.418ZM159.943 300.079L165.812 306.483L165.952 306.355L166.085 306.222L159.943 300.079ZM185.422 287.549L186.91 296.107L187.018 296.088L187.125 296.066L185.422 287.549ZM217.584 293.814L212.691 300.991L212.728 301.016L212.766 301.041L217.584 293.814ZM229.279 308.433L237.198 304.862L237.072 304.584L236.928 304.315L229.279 308.433ZM209.648 376.099L204.511 369.094L204.503 369.1L204.495 369.106L209.648 376.099ZM182.498 388.212L180.653 379.724L164.75 383.181L176.473 394.469L182.498 388.212ZM213.407 422.463L206.402 427.599L206.43 427.637L206.458 427.674L213.407 422.463ZM244.316 469.662L251.819 465.285L251.809 465.267L251.798 465.249L244.316 469.662ZM222.596 482.61L215.066 486.94L215.106 487.01L215.148 487.079L222.596 482.61ZM190.852 434.158L197.709 428.825L197.66 428.762L197.609 428.7L190.852 434.158ZM162.449 403.666L168.459 397.395L152.208 381.821L153.784 404.275L162.449 403.666ZM169.132 474.256L177.783 473.47L177.776 473.4L177.769 473.331L169.132 474.256ZM169.967 326.811L162.464 322.435L162.412 322.524L162.362 322.615L169.967 326.811ZM161.196 366.91L152.513 366.647L152.208 376.737L162.231 375.534L161.196 366.91ZM191.687 358.138L195.847 365.764L195.922 365.723L195.997 365.68L191.687 358.138ZM207.559 332.241L216.179 333.319L216.201 333.141L216.216 332.963L207.559 332.241ZM205.889 318.04L197.905 321.462L198.005 321.696L198.119 321.925L205.889 318.04ZM182.498 314.698L186.138 322.585L186.261 322.529L186.383 322.468L182.498 314.698ZM161.416 496.268C160.907 497.626 160.202 498.211 159.619 498.51C158.936 498.861 158.015 499.013 157.026 498.825C156.035 498.636 155.26 498.161 154.785 497.614C154.386 497.156 153.965 496.395 154.006 494.978L136.641 494.468C135.922 518.895 169.37 524.536 177.683 502.368L161.416 496.268ZM154.01 494.723C154.01 490.402 153.53 486.163 153.122 482.486L135.855 484.405C136.282 488.246 136.637 491.526 136.637 494.723H154.01ZM153.146 482.743C150.612 451.487 147.307 421.443 145.644 390.667L128.296 391.605C129.974 422.646 133.352 453.585 135.83 484.147L153.146 482.743ZM145.636 390.545C144.39 372.275 144.086 354.696 148.297 338.619L131.491 334.218C126.512 353.226 127.043 373.24 128.303 391.727L145.636 390.545ZM148.391 338.221C150.989 325.974 157.287 314.298 165.812 306.483L154.073 293.676C142.55 304.239 134.646 319.295 131.396 334.616L148.391 338.221ZM166.085 306.222C171.259 301.047 178.694 297.535 186.91 296.107L183.934 278.991C172.936 280.903 161.992 285.745 153.8 293.937L166.085 306.222ZM187.125 296.066C195.475 294.396 205.591 296.15 212.691 300.991L222.477 286.637C211.199 278.947 196.253 276.524 183.718 279.031L187.125 296.066ZM212.766 301.041C215.853 303.1 218.769 307.236 221.631 312.551L236.928 304.315C233.942 298.77 229.34 291.211 222.402 286.586L212.766 301.041ZM221.361 312.004C225.051 320.187 225.156 331.383 221.795 342.589C218.441 353.768 212.042 363.572 204.511 369.094L214.785 383.104C226.05 374.842 234.27 361.464 238.435 347.581C242.591 333.726 243.115 317.982 237.198 304.862L221.361 312.004ZM204.495 369.106C197.613 374.177 189.151 377.876 180.653 379.724L184.343 396.7C195.059 394.371 205.811 389.716 214.801 383.092L204.495 369.106ZM176.473 394.469C187.615 405.199 197.646 415.659 206.402 427.599L220.412 417.326C210.79 404.204 199.936 392.945 188.523 381.955L176.473 394.469ZM206.458 427.674C217.466 442.352 227.308 457.921 236.834 474.074L251.798 465.249C242.111 448.822 231.903 432.647 220.356 417.251L206.458 427.674ZM236.813 474.038C237.877 475.863 237.727 476.965 237.553 477.535C237.323 478.282 236.702 479.141 235.64 479.764C234.576 480.388 233.487 480.528 232.679 480.361C232.054 480.233 231.058 479.829 230.045 478.141L215.148 487.079C218.521 492.701 223.528 496.213 229.169 497.376C234.626 498.502 240.064 497.31 244.43 494.749C248.798 492.187 252.51 488.008 254.16 482.634C255.865 477.081 255.141 470.979 251.819 465.285L236.813 474.038ZM230.127 478.28C220.428 461.413 209.757 444.316 197.709 428.825L183.995 439.491C195.337 454.073 205.551 470.392 215.066 486.94L230.127 478.28ZM197.609 428.7C188.536 417.466 178.655 407.166 168.459 397.395L156.439 409.938C166.292 419.381 175.624 429.129 184.094 439.616L197.609 428.7ZM153.784 404.275C155.467 428.268 157.991 451.816 160.495 475.182L177.769 473.331C175.26 449.915 172.772 426.682 171.114 403.058L153.784 404.275ZM160.481 475.043C160.682 477.249 161.087 482.317 161.288 487.294C161.389 489.79 161.434 492.155 161.388 494.078C161.334 496.323 161.166 497.034 161.229 496.822L177.87 501.814C178.56 499.513 178.705 496.621 178.756 494.493C178.814 492.044 178.755 489.266 178.647 486.593C178.43 481.233 178 475.858 177.783 473.47L160.481 475.043ZM162.362 322.615C154.64 336.611 152.94 352.551 152.513 366.647L169.878 367.173C170.287 353.701 171.929 341.237 177.573 331.008L162.362 322.615ZM162.231 375.534C173.207 374.217 185.293 371.521 195.847 365.764L187.528 350.512C179.704 354.78 170.069 357.096 160.161 358.285L162.231 375.534ZM195.997 365.68C207.719 358.982 214.679 345.321 216.179 333.319L198.94 331.164C197.934 339.211 193.198 347.27 187.378 350.596L195.997 365.68ZM216.216 332.963C216.644 327.83 216.912 320.663 213.658 314.155L198.119 321.925C199.042 323.77 199.311 326.628 198.903 331.52L216.216 332.963ZM213.873 314.618C210.375 306.457 203.142 303.247 196.439 302.843C190.127 302.463 183.679 304.396 178.613 306.929L186.383 322.468C189.671 320.824 193.038 320.042 195.394 320.184C196.493 320.251 197.055 320.496 197.287 320.639C197.432 320.727 197.656 320.882 197.905 321.462L213.873 314.618ZM178.858 306.811C171.324 310.289 165.971 316.424 162.464 322.435L177.471 331.188C179.812 327.175 182.812 324.12 186.138 322.585L178.858 306.811ZM304.265 313.445L312.386 316.526L312.449 316.36L312.505 316.192L304.265 313.445ZM280.039 311.357L288.607 309.929V309.929L280.039 311.357ZM280.874 294.649L289.442 296.077L289.522 295.601L289.548 295.118L280.874 294.649ZM305.518 292.143L296.943 293.534L296.983 293.782L297.038 294.028L305.518 292.143ZM289.645 490.546L281.128 488.842L289.645 490.546ZM267.508 496.394L260.559 501.606L260.718 501.818L260.889 502.019L267.508 496.394ZM265.002 490.546L273.519 488.842L273.439 488.442L273.322 488.05L265.002 490.546ZM265.837 460.472L274.488 461.259L274.501 461.117L274.509 460.975L265.837 460.472ZM272.102 373.593L263.483 372.515L263.463 372.677L263.449 372.84L272.102 373.593ZM274.609 351.037L266.475 347.987L274.609 351.037ZM298.835 356.05L307.487 356.813L298.835 356.05ZM289.645 483.863L280.966 483.523L280.959 483.693V483.863H289.645ZM296.143 310.365C295.701 311.53 295.068 312.133 294.468 312.482C293.799 312.871 292.926 313.075 291.99 312.991C291.053 312.907 290.264 312.553 289.724 312.088C289.249 311.68 288.793 311.048 288.607 309.929L271.47 312.785C275.082 334.454 304.788 336.559 312.386 316.526L296.143 310.365ZM288.607 309.929C288.654 310.213 288.591 309.803 288.619 308.194C288.642 306.867 288.714 305.22 288.814 303.513C289.026 299.922 289.32 296.811 289.442 296.077L272.306 293.221C272.01 294.994 271.678 298.983 271.471 302.493C271.363 304.337 271.278 306.24 271.249 307.889C271.225 309.256 271.214 311.247 271.47 312.785L288.607 309.929ZM289.548 295.118C289.644 293.336 290.269 292.309 290.885 291.688C291.576 290.993 292.527 290.548 293.511 290.441C294.494 290.333 295.224 290.584 295.66 290.897C295.985 291.13 296.653 291.745 296.943 293.534L314.092 290.753C313.129 284.814 310.194 279.946 305.795 276.786C301.505 273.705 296.387 272.651 291.627 273.17C282.027 274.217 272.867 281.841 272.2 294.18L289.548 295.118ZM297.038 294.028C297.032 294.002 297.145 294.769 297.164 296.619C297.181 298.253 297.125 300.238 297.003 302.278C296.882 304.317 296.702 306.308 296.491 307.953C296.385 308.775 296.278 309.458 296.178 309.986C296.069 310.563 296.003 310.759 296.024 310.698L312.505 316.192C313.107 314.386 313.475 312.091 313.722 310.166C313.994 308.052 314.206 305.657 314.345 303.31C314.485 300.965 314.559 298.564 314.536 296.438C314.517 294.53 314.421 292.164 313.997 290.259L297.038 294.028ZM281.128 488.842C280.763 490.666 279.553 491.759 278.162 492.14C276.843 492.501 275.37 492.231 274.126 490.768L260.889 502.019C272.927 516.182 294.723 509.453 298.163 492.25L281.128 488.842ZM274.457 491.182C274.131 490.747 273.736 489.927 273.519 488.842L256.484 492.25C257.102 495.342 258.379 498.699 260.559 501.606L274.457 491.182ZM273.322 488.05C273.45 488.479 273.388 488.476 273.323 487.601C273.27 486.884 273.237 485.908 273.231 484.688C273.219 482.256 273.316 479.234 273.469 476.089C273.775 469.815 274.287 463.465 274.488 461.259L257.186 459.686C256.969 462.074 256.437 468.673 256.117 475.243C255.957 478.52 255.844 481.893 255.858 484.774C255.865 486.21 255.904 487.62 255.998 488.885C256.08 489.993 256.24 491.569 256.682 493.042L273.322 488.05ZM274.509 460.975C276.175 432.232 278.258 403.077 280.756 374.345L263.449 372.84C260.935 401.75 258.84 431.072 257.165 459.97L274.509 460.975ZM280.722 374.67C280.955 372.808 281.317 367.422 281.696 363.068C281.901 360.705 282.124 358.447 282.361 356.62C282.644 354.443 282.839 353.83 282.742 354.087L266.475 347.987C265.752 349.916 265.372 352.54 265.133 354.383C264.848 356.576 264.601 359.122 264.388 361.563C263.932 366.815 263.668 371.036 263.483 372.515L280.722 374.67ZM282.742 354.087C283.21 352.839 283.872 352.294 284.483 351.997C285.214 351.641 286.232 351.49 287.322 351.714C288.414 351.939 289.193 352.459 289.616 352.965C289.94 353.353 290.296 353.991 290.182 355.286L307.487 356.813C308.576 344.48 299.853 336.555 290.82 334.697C281.845 332.852 270.753 336.58 266.475 347.987L282.742 354.087ZM290.182 355.286C286.426 397.855 282.646 440.671 280.966 483.523L298.325 484.203C299.986 441.846 303.725 399.453 307.487 356.813L290.182 355.286ZM280.959 483.863C280.959 484.724 280.995 485.508 281.031 486.158C281.074 486.926 281.1 487.246 281.125 487.774C281.168 488.671 281.124 488.861 281.128 488.842L298.163 492.25C298.585 490.142 298.54 488.244 298.479 486.948C298.403 485.361 298.332 484.858 298.332 483.863H280.959ZM408.025 479.686L404.23 471.873L404.094 471.938L403.96 472.009L408.025 479.686ZM359.99 479.686L363.875 471.917L363.8 471.879L363.725 471.843L359.99 479.686ZM339.106 460.055L346.45 455.416L346.431 455.387L346.413 455.357L339.106 460.055ZM326.157 419.539L334.81 418.775L334.801 418.67L334.789 418.564L326.157 419.539ZM339.941 343.101L332.222 339.117L332.168 339.222L332.117 339.329L339.941 343.101ZM367.091 308.433L372.983 314.816L373.008 314.793L373.032 314.77L367.091 308.433ZM417.632 287.131V278.444H417.533L417.434 278.447L417.632 287.131ZM438.934 291.725L443.052 284.077L443.037 284.069L443.022 284.061L438.934 291.725ZM456.059 323.052L464.722 323.694L464.724 323.662L464.726 323.63L456.059 323.052ZM443.946 354.379L451.174 359.197L451.225 359.12L451.274 359.043L443.946 354.379ZM409.695 390.3L414.744 397.369L414.827 397.31L414.907 397.25L409.695 390.3ZM350.801 415.779L349.786 407.152L340.985 408.188L342.196 416.966L350.801 415.779ZM362.496 450.03L355.656 455.384L355.697 455.436L355.739 455.488L362.496 450.03ZM399.253 455.878L393.977 448.978L393.948 448.999L393.92 449.021L399.253 455.878ZM410.531 431.234L419.208 431.628L419.217 431.431V431.234H410.531ZM411.366 422.88L419.136 426.765L419.393 426.249L419.581 425.704L411.366 422.88ZM434.757 439.17L426.124 438.211L426.107 438.357L426.096 438.504L434.757 439.17ZM383.381 327.647L389.123 334.165L389.187 334.108L389.251 334.05L383.381 327.647ZM351.636 390.3L343.017 389.223L341.483 401.493L353.546 398.774L351.636 390.3ZM425.568 336.418L433.058 340.817L433.128 340.699L433.193 340.578L425.568 336.418ZM430.998 322.635L439.648 323.421L439.656 323.337L439.662 323.253L430.998 322.635ZM403.96 472.009C392.44 478.108 375.778 477.868 363.875 471.917L356.106 487.456C372.605 495.705 395.207 496.301 412.089 487.363L403.96 472.009ZM363.725 471.843C356.88 468.584 350.893 462.451 346.45 455.416L331.761 464.693C337.343 473.531 345.557 482.434 356.256 487.529L363.725 471.843ZM346.413 455.357C339.828 445.115 335.971 431.934 334.81 418.775L317.505 420.302C318.85 435.546 323.347 451.604 331.799 464.752L346.413 455.357ZM334.789 418.564C332.069 394.469 337.119 368.957 347.766 346.874L332.117 339.329C320.208 364.027 314.398 392.815 317.526 420.513L334.789 418.564ZM347.66 347.085C353.78 335.229 362.69 324.317 372.983 314.816L361.199 302.05C349.772 312.598 339.469 325.077 332.222 339.117L347.66 347.085ZM373.032 314.77C384.988 303.562 401.786 296.18 417.829 295.815L417.434 278.447C396.721 278.917 375.926 288.243 361.15 302.096L373.032 314.77ZM417.632 295.817C423.928 295.817 430.292 296.961 434.846 299.39L443.022 284.061C435.045 279.807 425.536 278.444 417.632 278.444V295.817ZM434.815 299.374C442.624 303.578 448.005 313.278 447.392 322.474L464.726 323.63C465.784 307.765 456.963 291.568 443.052 284.077L434.815 299.374ZM447.396 322.411C446.722 331.509 442.237 340.885 436.618 349.715L451.274 359.043C457.35 349.495 463.725 337.151 464.722 323.694L447.396 322.411ZM436.718 349.561C428.111 362.472 417.115 373.878 404.484 383.351L414.907 397.25C429.008 386.674 441.403 373.854 451.174 359.197L436.718 349.561ZM404.647 383.232C387.663 395.363 369.02 404.89 349.786 407.152L351.816 424.406C375.187 421.657 396.641 410.299 414.744 397.369L404.647 383.232ZM342.196 416.966C343.869 429.098 346.564 443.766 355.656 455.384L369.337 444.677C363.392 437.08 361.074 426.687 359.406 414.593L342.196 416.966ZM355.739 455.488C366.827 469.216 388.795 475.017 404.586 462.734L393.92 449.021C387.156 454.282 375.709 452.564 369.254 444.572L355.739 455.488ZM404.53 462.778C414.347 455.27 418.719 442.386 419.208 431.628L401.853 430.84C401.507 438.46 398.36 445.625 393.977 448.978L404.53 462.778ZM419.217 431.234C419.217 430.349 419.185 429.434 419.168 428.813C419.149 428.112 419.144 427.63 419.159 427.222C419.189 426.403 419.295 426.447 419.136 426.765L403.597 418.995C402.185 421.82 401.872 424.579 401.798 426.579C401.746 427.975 401.844 430.841 401.844 431.234H419.217ZM419.581 425.704C420.028 424.403 420.654 423.902 421.127 423.653C421.712 423.347 422.574 423.182 423.577 423.373C424.578 423.563 425.423 424.055 425.975 424.673C426.454 425.21 426.906 426.043 426.906 427.475H444.279C444.279 415.648 435.836 408.022 426.828 406.307C417.755 404.578 407.059 408.69 403.152 420.056L419.581 425.704ZM426.906 427.475C426.906 431.103 426.546 434.407 426.124 438.211L443.39 440.129C443.803 436.415 444.279 432.2 444.279 427.475H426.906ZM426.096 438.504C425.059 451.984 415.838 466.234 404.23 471.873L411.82 487.5C429.449 478.937 441.949 458.936 443.418 439.836L426.096 438.504ZM377.639 321.129C358.282 338.181 346.165 364.043 343.017 389.223L360.256 391.378C362.956 369.777 373.394 348.022 389.123 334.165L377.639 321.129ZM353.546 398.774C385.525 391.568 416.376 369.222 433.058 340.817L418.077 332.019C403.85 356.244 377.06 375.667 349.727 381.826L353.546 398.774ZM433.193 340.578C435.459 336.425 439.036 330.162 439.648 323.421L422.347 321.848C422.124 324.296 420.689 327.222 417.942 332.259L433.193 340.578ZM439.662 323.253C440.465 312.015 431.492 303.506 420.973 303.506V320.879C421.59 320.879 421.942 321.106 422.107 321.276C422.193 321.365 422.248 321.456 422.283 321.549C422.314 321.634 422.35 321.779 422.333 322.016L439.662 323.253ZM420.973 303.506C405.12 303.506 388.891 310.812 377.511 321.244L389.251 334.05C397.92 326.103 410.094 320.879 420.973 320.879V303.506ZM496.373 492.217L488.603 488.332L488.345 488.848L488.158 489.393L496.373 492.217ZM472.147 488.04H463.46V488.168L463.464 488.295L472.147 488.04ZM481.754 409.096L473.17 407.761L473.169 407.768L473.168 407.776L481.754 409.096ZM493.867 353.544L485.686 350.622L485.645 350.738L485.607 350.854L493.867 353.544ZM512.245 320.128L506.103 313.986L512.245 320.128ZM536.471 318.875L530.53 325.212L530.744 325.413L530.97 325.598L536.471 318.875ZM545.242 333.912L536.94 336.467L536.953 336.51L536.967 336.553L545.242 333.912ZM559.444 393.642L550.986 395.621L550.995 395.658L551.004 395.695L559.444 393.642ZM573.645 438.335L565.923 442.313L577.622 465.022L582.192 439.889L573.645 438.335ZM577.822 396.148L586.494 396.658L586.497 396.605L586.499 396.552L577.822 396.148ZM584.088 262.487L591.536 266.956L591.611 266.832L591.681 266.706L584.088 262.487ZM606.643 272.929L598.402 270.183L598.215 270.745L598.105 271.329L606.643 272.929ZM605.39 319.711L596.723 319.133L596.708 319.359L596.704 319.585L605.39 319.711ZM602.048 405.755L593.385 405.127L593.381 405.17L593.379 405.213L602.048 405.755ZM597.454 445.853L588.968 443.997L588.951 444.073L588.936 444.15L597.454 445.853ZM590.353 464.232L597.21 469.565L597.224 469.546L597.238 469.528L590.353 464.232ZM565.709 468.408L560.788 475.566L560.881 475.63L560.975 475.692L565.709 468.408ZM551.09 449.612L558.95 445.914L558.945 445.904L558.94 445.894L551.09 449.612ZM523.523 347.696L531.912 345.445L525.816 322.723L515.683 343.954L523.523 347.696ZM507.65 406.59L516.214 408.045L516.231 407.944L516.246 407.844L507.65 406.59ZM498.461 473.421L507.06 474.649L507.078 474.524L507.092 474.398L498.461 473.421ZM488.158 489.393C487.688 490.76 487.026 491.312 486.534 491.582C485.946 491.904 485.118 492.07 484.175 491.907C483.232 491.744 482.414 491.29 481.857 490.685C481.365 490.15 480.873 489.285 480.829 487.785L463.464 488.295C463.807 499.949 472.147 507.456 481.212 509.025C490.34 510.605 500.744 506.221 504.587 495.041L488.158 489.393ZM480.833 488.04C480.833 483.11 482.705 466.805 484.938 449.525C487.126 432.598 489.518 415.755 490.339 410.417L473.168 407.776C472.319 413.297 469.907 430.288 467.709 447.298C465.556 463.955 463.46 481.693 463.46 488.04H480.833ZM490.337 410.432C493.252 391.693 496.509 373.485 502.126 356.233L485.607 350.854C479.528 369.524 476.103 388.908 473.17 407.761L490.337 410.432ZM502.047 356.465C506.241 344.723 510.727 333.931 518.387 326.271L506.103 313.986C495.384 324.705 489.846 338.974 485.686 350.622L502.047 356.465ZM518.387 326.271C522.26 322.398 527.765 322.621 530.53 325.212L542.412 312.538C531.811 302.599 515.596 304.493 506.103 313.986L518.387 326.271ZM530.97 325.598C533.482 327.653 535.374 331.377 536.94 336.467L553.545 331.358C551.769 325.587 548.649 317.616 541.972 312.152L530.97 325.598ZM536.967 336.553C543.103 355.778 546.203 375.186 550.986 395.621L567.902 391.662C563.495 372.835 559.913 351.309 553.518 331.271L536.967 336.553ZM551.004 395.695C554.661 410.731 558.237 427.392 565.923 442.313L581.367 434.357C574.852 421.71 571.745 407.462 567.884 391.589L551.004 395.695ZM582.192 439.889C584.808 425.498 585.664 410.765 586.494 396.658L569.151 395.638C568.31 409.934 567.495 423.604 565.099 436.781L582.192 439.889ZM586.499 396.552C588.173 360.572 589.433 324.499 589.433 288.384H572.06C572.06 324.112 570.813 359.882 569.145 395.744L586.499 396.552ZM589.433 288.384C589.433 286.177 589.626 281.03 590.122 275.97C590.37 273.444 590.678 271.101 591.037 269.237C591.466 267.016 591.776 266.557 591.536 266.956L576.639 258.018C575.147 260.505 574.412 263.702 573.979 265.945C573.477 268.544 573.107 271.475 572.832 274.275C572.284 279.866 572.06 285.579 572.06 288.384H589.433ZM591.681 266.706C592.261 265.662 592.923 265.218 593.494 264.999C594.147 264.749 594.991 264.686 595.883 264.925C596.776 265.164 597.51 265.651 597.99 266.236C598.418 266.758 598.792 267.525 598.792 268.752H616.165C616.165 247.226 587.299 238.82 576.494 258.269L591.681 266.706ZM598.792 268.752C598.792 268.603 598.803 268.558 598.792 268.641C598.783 268.715 598.762 268.842 598.724 269.021C598.645 269.389 598.527 269.808 598.402 270.183L614.884 275.676C615.381 274.183 616.165 271.437 616.165 268.752H598.792ZM598.105 271.329C597.648 273.769 597.434 277.83 597.296 281.881C597.148 286.198 597.069 291.334 597.017 296.387C596.909 306.811 596.91 316.325 596.723 319.133L614.057 320.289C614.288 316.831 614.288 306.296 614.389 296.567C614.441 291.543 614.519 286.576 614.659 282.473C614.808 278.106 615.012 275.432 615.181 274.53L598.105 271.329ZM596.704 319.585C596.288 348.328 595.456 376.544 593.385 405.127L610.712 406.383C612.818 377.324 613.657 348.735 614.075 319.837L596.704 319.585ZM593.379 405.213C592.537 418.681 591.727 431.386 588.968 443.997L605.94 447.709C609.029 433.588 609.889 419.561 610.718 406.297L593.379 405.213ZM588.936 444.15C587.695 450.356 586.307 455.245 583.468 458.935L597.238 469.528C602.753 462.358 604.707 453.881 605.971 447.557L588.936 444.15ZM583.496 458.899C580.322 462.98 574.882 464.011 570.443 461.125L560.975 475.692C573.244 483.666 588.689 480.52 597.21 469.565L583.496 458.899ZM570.63 461.25C565.788 457.921 562.013 452.423 558.95 445.914L543.23 453.311C546.85 461.004 552.265 469.707 560.788 475.566L570.63 461.25ZM558.94 445.894C551.838 430.901 547.41 414.731 543.589 397.693C539.846 380.999 536.559 362.766 531.912 345.445L515.133 349.947C519.675 366.876 522.654 383.73 526.637 401.495C530.544 418.916 535.305 436.579 543.24 453.331L558.94 445.894ZM515.683 343.954C506.334 363.543 502.011 385.063 499.055 405.337L516.246 407.844C519.137 388.019 523.168 368.605 531.362 351.437L515.683 343.954ZM499.086 405.136C495.29 427.491 492.346 450.22 489.83 472.444L507.092 474.398C509.589 452.347 512.492 429.965 516.214 408.045L499.086 405.136ZM489.862 472.192C489.603 474.008 489.337 478.871 489.07 482.301C488.917 484.267 488.749 486.071 488.56 487.477C488.465 488.183 488.38 488.673 488.315 488.973C488.214 489.441 488.25 489.038 488.603 488.332L504.142 496.102C504.808 494.769 505.132 493.4 505.295 492.646C505.495 491.724 505.651 490.735 505.778 489.791C506.033 487.894 506.23 485.704 506.39 483.65C506.75 479.04 506.902 475.758 507.06 474.649L489.862 472.192ZM680.535 484.698L682.86 493.068L682.946 493.044L683.031 493.018L680.535 484.698ZM657.144 485.116L659.891 476.875L659.744 476.826L659.595 476.783L657.144 485.116ZM641.69 469.662L633.491 472.531L633.6 472.842L633.732 473.143L641.69 469.662ZM638.348 442.929H647.035V442.732L647.026 442.535L638.348 442.929ZM635.842 301.75L627.223 300.673L627.168 301.111L627.158 301.553L635.842 301.75ZM637.931 292.561L645.7 296.446V296.446L637.931 292.561ZM654.638 282.954L658.523 275.185L657.225 274.535L655.786 274.344L654.638 282.954ZM662.157 285.46L658.272 293.23L658.805 293.496L659.37 293.687L662.157 285.46ZM729.405 332.659L736.43 327.55L736.416 327.53L736.401 327.511L729.405 332.659ZM744.442 362.733L736.139 365.287L736.156 365.344L736.175 365.4L744.442 362.733ZM747.365 402.413L755.97 403.6L755.976 403.563L755.98 403.525L747.365 402.413ZM714.368 465.485L708.532 459.05L708.521 459.06L708.511 459.07L714.368 465.485ZM665.08 459.637H673.767V458.704L673.569 457.792L665.08 459.637ZM676.776 459.637L679.826 467.77L679.946 467.725L680.065 467.677L676.776 459.637ZM702.255 442.512L708.57 448.476L708.655 448.386L708.738 448.293L702.255 442.512ZM722.722 382.782L714.056 383.38L714.065 383.513L714.078 383.646L722.722 382.782ZM710.191 348.531L717.279 343.51L717.221 343.429L717.162 343.348L710.191 348.531ZM660.904 311.775L664.282 303.772L652.217 298.678V311.775H660.904ZM662.157 393.224L653.471 393.358L653.473 393.48L653.478 393.602L662.157 393.224ZM678.21 476.329C671.521 478.187 665.104 478.613 659.891 476.875L654.397 493.357C664.221 496.631 674.512 495.387 682.86 493.068L678.21 476.329ZM659.595 476.783C655.975 475.718 652.062 471.697 649.648 466.18L633.732 473.143C637.165 480.992 644.112 490.337 654.693 493.45L659.595 476.783ZM649.889 466.792C647.492 459.945 647.035 451.637 647.035 442.929H629.662C629.662 451.765 630.04 462.671 633.491 472.531L649.889 466.792ZM647.026 442.535C646.195 424.259 644.115 320.052 644.526 301.947L627.158 301.553C626.734 320.204 628.831 424.843 629.671 443.324L647.026 442.535ZM644.461 302.827C644.937 299.021 645.251 297.343 645.7 296.446L630.161 288.676C628.104 292.791 627.582 297.796 627.223 300.673L644.461 302.827ZM645.7 296.446C646.292 295.262 647.602 293.813 649.424 292.745C651.279 291.658 652.78 291.47 653.49 291.564L655.786 274.344C650.231 273.603 644.84 275.295 640.638 277.757C636.404 280.24 632.493 284.012 630.161 288.676L645.7 296.446ZM650.753 290.723C651.38 291.036 652.016 291.263 652.238 291.342C652.59 291.468 652.978 291.598 653.349 291.719C654.093 291.963 654.988 292.242 655.806 292.498C656.659 292.764 657.434 293.007 658.048 293.207C658.355 293.308 658.568 293.381 658.699 293.428C658.96 293.521 658.689 293.438 658.272 293.23L666.041 277.691C665.415 277.378 664.779 277.151 664.557 277.072C664.205 276.946 663.817 276.816 663.446 276.695C662.702 276.451 661.807 276.172 660.988 275.916C660.136 275.65 659.36 275.407 658.747 275.207C658.439 275.106 658.226 275.033 658.095 274.987C657.834 274.893 658.106 274.976 658.523 275.185L650.753 290.723ZM659.37 293.687C683.93 302.006 707.372 317.374 722.408 337.807L736.401 327.511C718.857 303.669 692.177 286.457 664.943 277.233L659.37 293.687ZM722.38 337.768C728.499 346.182 733.08 355.344 736.139 365.287L752.744 360.178C749.12 348.402 743.677 337.514 736.43 327.55L722.38 337.768ZM736.175 365.4C739.858 376.819 740.305 389.254 738.75 401.302L755.98 403.525C757.767 389.676 757.379 374.543 752.709 360.066L736.175 365.4ZM738.76 401.226C735.69 423.488 724.941 444.168 708.532 459.05L720.204 471.919C739.716 454.222 752.358 429.79 755.97 403.6L738.76 401.226ZM708.511 459.07C699.854 466.974 689.304 472.999 678.039 476.378L683.031 493.018C696.827 488.88 709.668 481.539 720.225 471.899L708.511 459.07ZM656.394 459.637C656.394 461.242 656.744 463.119 657.624 464.879C658.35 466.33 660.929 470.412 666.333 470.412V453.039C670.902 453.039 672.855 456.494 673.163 457.11C673.625 458.034 673.767 458.867 673.767 459.637H656.394ZM666.333 470.412C670.977 470.412 675.787 469.285 679.826 467.77L673.726 451.504C671.082 452.495 668.373 453.039 666.333 453.039V470.412ZM680.065 467.677C690.218 463.523 700.495 457.026 708.57 448.476L695.94 436.547C689.813 443.034 681.712 448.232 673.487 451.597L680.065 467.677ZM708.738 448.293C723.933 431.256 733.725 405.515 731.365 381.918L714.078 383.646C715.895 401.818 708.144 422.859 695.772 436.73L708.738 448.293ZM731.388 382.184C730.433 368.348 725.222 354.724 717.279 343.51L703.103 353.552C709.361 362.388 713.339 372.99 714.056 383.38L731.388 382.184ZM717.162 343.348C703.884 325.492 684.082 312.132 664.282 303.772L657.525 319.777C675.317 327.289 692.272 338.991 703.22 353.715L717.162 343.348ZM652.217 311.775C652.217 339.002 653.056 366.397 653.471 393.358L670.842 393.091C670.421 365.751 669.59 338.846 669.59 311.775H652.217ZM653.478 393.602C653.686 398.369 653.883 412.187 654.309 426.686C654.519 433.814 654.783 441.009 655.129 447.055C655.46 452.839 655.899 458.294 656.592 461.482L673.569 457.792C673.218 456.177 672.821 452.129 672.474 446.061C672.141 440.255 671.883 433.249 671.675 426.175C671.266 412.271 671.045 397.687 670.835 392.847L653.478 393.602Z" fill="#0C0C0C" mask="url(#path-2-outside-1_164_33)"/>
</svg>
